<svg xmlns="http://www.w3.org/2000/svg" width="400" height="400" version="1.0" viewBox="0 0 300 300"><g fill="#b68641"><path d="M119 57.6c-9.3 3-15.4 7.4-20.4 14.7-6.2 9-8 19.7-5 31 2.3 9.1 6.9 16.7 13.5 22.4 3.7 3.3 21.7 15.3 22.9 15.3.4 0 4.5 2.2 9.1 5 4.6 2.7 8.9 5 9.4 5 .6 0 2.1-1.7 3.4-3.8 1.4-2 3.3-4.7 4.4-5.9 1.1-1.3 1.6-2.7 1.1-3.5-.4-.7-.3-1 .1-.5 1.1 1 4.5-2.2 4.5-4.3 0-.9-1.5-2.4-3.2-3.3-3.7-1.9-7.5-4.3-26.8-16.8-12-7.8-13.9-9.4-17-14.5-6.1-10.1-5.3-24 1.7-31 5.6-5.6 11.4-7.8 20.3-7.7 8.9.1 13.5 1.6 21.7 6.9 4.3 2.7 7.4 5.7 10.1 9.9 5.4 8.1 10.2 17.9 10.2 20.9 0 1.4.4 2.7 1 3.1.6.3 1-7 1.2-19.6.2-11 0-20.3-.3-20.5-.4-.2-1.4.5-2.4 1.6-2.5 2.8-6.7 2.5-15.7-.9-16.8-6.5-31.2-7.7-43.8-3.5zm-4.1 7.1c-1.3 1.6-2.7 2.9-3.1 3.1-.5.2-.8 1-.8 1.8s-.5 1.4-1.1 1.4c-.5 0-.7.5-.4 1 .4.6.2 1.7-.4 2.4-1.4 1.6-1.7 11.7-.6 16.6 1 4.8 6.4 13.6 9.2 15.1 1.3.7 2.3 1.6 2.3 2.1 0 .4.6.8 1.3.8.6 0 2.3.9 3.7 2 4 3.2 18 12 19 12 .6 0 1 .4 1 .8s2.9 2.5 6.5 4.5c4.5 2.6 6.5 4.3 6.5 5.7 0 1.1-.4 2-.8 2-.5 0-1.7 1.5-2.7 3.4-1.1 1.9-2.3 3.2-2.8 2.9-.6-.3-.7-.1-.3.5.7 1.2-1.9 4.2-3.7 4.2-2.2-.1-23.4-12.2-32.7-18.8-10.5-7.4-14.7-12.5-18-22.1-4.1-11.8-1.7-26.4 5.8-34.6 3.5-3.9 9.2-8.1 11.7-8.8 1.1-.2 2.2-.5 2.4-.6.3 0-.6 1.1-2 2.6zm55.1 1.8c.5-.3 1.1-.2 1.4.3.3.5 1.8.7 3.4.6l2.8-.2.2 7.9c.2 5.2-.2 7.9-.9 7.9-.6 0-1.3-.9-1.6-2-.3-1.1-1-2-1.5-2s-.7-.4-.4-.9c.3-.5-.1-1.2-.9-1.5-.9-.3-2-1.6-2.5-2.8-.5-1.3-2.2-3.8-3.6-5.6l-2.7-3.3 2.7 1.1c1.5.5 3.1.8 3.6.5z"/><path d="M131.8 94.7c-9.8.3-10.8.5-10.8 2.2 0 2.3 6.3 9.1 8.4 9.1.8 0 3.2-1.1 5.2-2.5s4.4-2.5 5.3-2.5c1.1 0 1.2-.3.5-.8-.7-.4 6.5-.8 16-1 9.4-.2 17.5-.7 18-1.2s.6-1.6.3-2.4c-.7-1.6-10.4-1.8-42.9-.9zm3.7 3.3c.8 1.4-5.3 4.2-7.6 3.5-1-.4-1.7-1.1-1.4-1.6.4-.5 0-1-.7-1.1-.7 0 1-.4 3.7-.8 2.8-.4 5.1-.8 5.2-.8.1-.1.4.2.8.8zM195.3 94.7c-9.5.3-10.3.5-10.3 2.4 0 2.5 2.7 3.6 5.3 2 1.3-.9 2.3-.9 3-.2 1.2 1.2 1.5.7-11 16.8-10.5 13.4-21 26.9-46.6 59.9-9.7 12.6-22.3 28.7-28 35.9-5.6 7.1-10.3 13.6-10.5 14.3-.3 1 11.8 1.2 59.4 1l59.8-.3.8-3.6c1.2-5.9 1.7-8.9 3.3-18.4.9-5 1.9-10.7 2.4-12.8.8-3.2.7-3.7-.9-3.7-1.1 0-2.3 1.3-3 3.2-2.6 6.6-9 16.6-13.2 20.7-9.3 9-14.9 10.2-51.3 10.3-15.4 0-28.4.4-29 .7-.5.3-5.6.7-11.2.7-9.6.2-10.3.1-10.3-1.8 0-1 .5-1.6 1-1.3.6.3 1 0 1-.8 0-1.4 4.1-6.9 9-12.3 1.1-1.2 2-2.6 2-3.1s.9-1.5 1.9-2.3c1.1-.7 1.8-1.7 1.6-2.1-.3-.3 1.1-2.2 3-4.2s3.5-3.8 3.5-4.2c0-.3.8-1.3 1.8-2.3.9-1.1 2.6-3.2 3.7-4.7 2.8-4 10-13.4 12.9-17 3.2-3.9 11.3-14.5 15.1-20 6-8.5 27.8-35.5 28.7-35.5.5 0 .7-.4.4-.8-.3-.5.8-2.3 2.4-4.1 3-3.2 3.4-4.1 3.1-7.2-.1-.9.5-1.9 1.4-2.3 1-.4 1.4-.2.9.5-.4.8-.1.8 1.2.2 2.2-1.2 19.4-1.6 19.4-.5 0 .4-1.6 2.5-3.5 4.7-2 2.2-4.3 5.2-5.2 6.7-1 1.6-2.1 2.8-2.5 2.8-.4 0-.8.6-.8 1.2 0 .7-1.4 2.8-3 4.7-1.7 1.8-3 3.8-3 4.4 0 .6-.3.7-.7.4-.3-.4-1.5.7-2.5 2.4-1.2 2-1.6 3.5-1 4.1.6.6 3.9-3 8.8-9.3 4.4-5.6 10.3-13.1 13.2-16.7 2.8-3.5 5.2-7.1 5.2-7.8 0-1.5-1.5-1.5-27.7-.7zm21.1 113c-.8 7.9-.9 8.7-1.8 10.1-.4.7-.5 2-.2 2.8.4.9-.2 1.8-1.5 2.3-2.5.8-13.6.8-14.5-.2-.3-.3-1.3-.3-2.2 0-1 .2 1-1.1 4.3-3 6.7-4 11.7-8.9 14.2-14.2.9-1.9 1.8-3.5 2-3.5.1 0 0 2.6-.3 5.7z"/><path d="M191.1 133.5c-1.8 2.5-3.6 4.5-4.2 4.5-.5 0-.9.4-.9 1 0 1.1-.4 1.6-8 10-2.7 3-5.2 6.3-5.5 7.2-.4 1-1.1 1.8-1.6 1.8s-.9.5-.9 1.1c0 .6-2.5 4.1-5.5 7.7-6.3 7.6-6.2 7.4-9.5 12.2-1.4 1.9-3.2 4.2-4 5-.8.9-2.4 2.8-3.5 4.4-1.1 1.5-4 5.4-6.5 8.5-2.5 3.2-6.3 8.2-8.5 11.1-2.2 2.9-4.8 6-5.8 7-2.2 2.2-3.3 8.8-1.1 6.9.8-.6 1.4-1.7 1.4-2.4 0-.8.4-1.5.9-1.7.7-.2 30.7-38.4 44.5-56.7 2.3-2.9 6.2-8 8.9-11.2 4.7-5.8 5.7-7.7 3.5-6.3-.7.4-.8.3-.4-.5.4-.6 1.1-.9 1.6-.6 1.3.8 10.3-11.6 9.3-12.6-.6-.6-2.3.9-4.2 3.6zM180.9 158.7c-1.3 2.1-4.3 5.9-6.7 8.5l-4.3 4.6 1.8 3.4c2.7 5 2.5 18.9-.4 24.4-3.5 6.6-7 10.1-13 13.1-4.7 2.2-7.2 2.8-14.1 2.9-9.3.2-12.4 1.6-7.6 3.5 3.9 1.5 20.3.4 28.1-2 11.1-3.4 20.1-10.8 25.1-20.7 4.3-8.5 4.9-23.4 1.1-30.7-2.3-4.4-6.4-10.7-7.1-10.7-.3 0-1.7 1.7-2.9 3.7zm6.4 7.6c3.3 6.8 4 12.4 2.8 19.3-1.9 10.3-7.4 18.5-15.6 23.6-3.5 2.2-10.5 5.1-10.5 4.5 0-.2 1.8-2.2 4-4.6 6.5-7 10.4-18.4 8.8-25.5-.5-2.3-1.1-4.9-1.3-5.9-.2-1-.7-2.7-1-3.8-.5-1.3.4-3 2.9-5.6 2-2.1 3.6-4.3 3.6-5 0-1 1.4-2 3.2-2.2.3-.1 1.8 2.3 3.1 5.2zM89 184.6c0 16.1.3 24.3 1 23.9.6-.3 1-1.2 1-1.9s.9-2.1 1.9-3c2-1.8 7.3-1.8 14.1-.2 2.1.5 2.9 0 4.6-2.6l2.1-3.3-5.1-5.6c-2.8-3-6-6.6-7.1-8-3.1-3.8-10.5-19-10.5-21.6 0-1.3-.4-2.3-1-2.3s-1 8.9-1 24.6zm8.5-1.1c1.9 3.1 4.2 5.8 5 6.1.8.4 1.3 1 1 1.4-.3.5.9 2 2.6 3.3 5.1 4 3.5 5.4-5.6 5.1-4.3-.2-7.9-.5-8.1-.7-.7-.6-.6-18.5.1-19.6 1-1.7 1.2-1.5 5 4.4z"/></g></svg>